<?xml version="1.0" encoding="utf-8"?>
<!-- Generator: Adobe Illustrator 17.1.0, SVG Export Plug-In . SVG Version: 6.00 Build 0)  -->
<!DOCTYPE svg PUBLIC "-//W3C//DTD SVG 1.0//EN" "http://www.w3.org/TR/2001/REC-SVG-20010904/DTD/svg10.dtd">
<svg version="1.0" id="Layer_1" xmlns="http://www.w3.org/2000/svg" xmlns:xlink="http://www.w3.org/1999/xlink" x="0px" y="0px"
	 width="60px" height="60px" viewBox="0 0 60 60" enable-background="new 0 0 60 60" xml:space="preserve">
<g>
	<g>
		<path fill="#FF593F" d="M30,59C14,59,1,46,1,30S14,1,30,1s29,13,29,29S46,59,30,59z M30,3C15.1,3,3,15.1,3,30s12.1,27,27,27
			s27-12.1,27-27S44.9,3,30,3z"/>
	</g>
	<g>
		<path fill="#FF593F" d="M40.7,25.1c-0.4-1.6-1.5-3.1-3.2-3.6c-3.4-1-10.6-1-14,0c-1.6,0.5-2.8,2-3.2,3.6c-0.5,2.2-0.5,4.5,0,6.7
			c0.4,1.6,1.5,3.1,3.2,3.6c0.8,0.2,1.7,0.4,2.8,0.5c0,0.6-0.2,1.4-1.3,2.5c-1.6,1.6,1.9,0.6,3.1-0.2c1.1-0.6,2.1-1.3,3.1-2.1
			c2.4,0,4.8-0.3,6.4-0.7c1.6-0.5,2.8-2,3.2-3.6C41.1,29.6,41.1,27.3,40.7,25.1z"/>
	</g>
</g>
</svg>
