<?xml version="1.0" encoding="utf-8"?>
<!-- Generator: Adobe Illustrator 17.1.0, SVG Export Plug-In . SVG Version: 6.00 Build 0)  -->
<!DOCTYPE svg PUBLIC "-//W3C//DTD SVG 1.0//EN" "http://www.w3.org/TR/2001/REC-SVG-20010904/DTD/svg10.dtd">
<svg version="1.0" id="Layer_1" xmlns="http://www.w3.org/2000/svg" xmlns:xlink="http://www.w3.org/1999/xlink" x="0px" y="0px"
	 width="60px" height="60px" viewBox="0 0 60 60" enable-background="new 0 0 60 60" xml:space="preserve">
<g>
	<g>
		<path fill="#CCCCCC" d="M30,59C14,59,1,46,1,30S14,1,30,1s29,13,29,29S46,59,30,59z M30,3C15.1,3,3,15.1,3,30s12.1,27,27,27
			s27-12.1,27-27S44.9,3,30,3z"/>
	</g>
	<g>
		<g>
			<path fill="#CCCCCC" d="M34.6,30h-3c0,4.9,0,10.8,0,10.8h-4.5c0,0,0-5.9,0-10.8H25v-3.8h2.1v-2.5c0-1.8,0.8-4.5,4.5-4.5l3.3,0
				v3.7c0,0-2,0-2.4,0c-0.4,0-1,0.2-1,1v2.2H35L34.6,30z"/>
		</g>
	</g>
</g>
</svg>
