<?xml version="1.0" encoding="utf-8"?>
<!-- Generator: Adobe Illustrator 15.0.2, SVG Export Plug-In  -->
<!DOCTYPE svg PUBLIC "-//W3C//DTD SVG 1.1//EN" "http://www.w3.org/Graphics/SVG/1.1/DTD/svg11.dtd" [
	<!ENTITY ns_flows "http://ns.adobe.com/Flows/1.0/">
]>
<svg version="1.1"
	 xmlns="http://www.w3.org/2000/svg" xmlns:xlink="http://www.w3.org/1999/xlink" xmlns:a="http://ns.adobe.com/AdobeSVGViewerExtensions/3.0/"
	 x="0px" y="0px" width="60px" height="60px" viewBox="-1 -1 60 60" enable-background="new -1 -1 60 60" xml:space="preserve">
<defs>
</defs>
<path fill="#CCCCCC" d="M29,58C13,58,0,45,0,29S13,0,29,0s29,13,29,29S45,58,29,58z M29,2C14.1,2,2,14.1,2,29c0,14.9,12.1,27,27,27
	c14.9,0,27-12.1,27-27C56,14.1,43.9,2,29,2z"/>
<path fill="#CCCCCC" d="M39.27,18.622c-0.563-0.565-1.24-0.847-2.029-0.847H20.546c-0.788,0-1.467,0.282-2.031,0.847
	c-0.566,0.564-0.848,1.243-0.848,2.031v16.693c0,0.791,0.281,1.467,0.848,2.031c0.564,0.566,1.243,0.848,2.031,0.848H37.24
	c0.789,0,1.467-0.281,2.029-0.848c0.567-0.564,0.851-1.24,0.851-2.031V20.653C40.12,19.864,39.837,19.186,39.27,18.622
	 M37.283,24.411c-0.196,0.194-0.433,0.292-0.717,0.292h-2.543c-0.283,0-0.522-0.098-0.716-0.292
	c-0.194-0.195-0.292-0.435-0.292-0.716v-2.413c0-0.273,0.098-0.507,0.292-0.71c0.193-0.198,0.433-0.298,0.716-0.298h2.543
	c0.284,0,0.521,0.1,0.717,0.298c0.196,0.203,0.294,0.437,0.294,0.71v2.413C37.577,23.976,37.479,24.215,37.283,24.411
	 M28.908,33.328c-1.237,0-2.298-0.426-3.181-1.279c-0.881-0.855-1.322-1.885-1.322-3.092c0-1.209,0.441-2.24,1.322-3.092
	c0.883-0.853,1.943-1.279,3.181-1.279c1.247,0,2.313,0.427,3.194,1.279c0.883,0.853,1.322,1.883,1.322,3.092
	c0,1.207-0.439,2.236-1.322,3.092C31.221,32.902,30.155,33.328,28.908,33.328 M37.313,37.383c-0.175,0.17-0.384,0.256-0.629,0.256
	H21.06c-0.256,0-0.468-0.086-0.638-0.256c-0.17-0.172-0.256-0.383-0.256-0.635v-9.474h2.061c-0.193,0.617-0.292,1.253-0.292,1.916
	c0,1.873,0.683,3.467,2.048,4.789c1.364,1.318,3.006,1.98,4.926,1.98c1.267,0,2.436-0.303,3.508-0.906
	c1.072-0.605,1.921-1.426,2.543-2.463c0.625-1.039,0.934-2.172,0.934-3.4c0-0.662-0.094-1.299-0.289-1.916h1.974v9.474
	C37.577,37,37.487,37.211,37.313,37.383"/>
</svg>
