<?xml version="1.0" encoding="utf-8"?>
<!-- Generator: Adobe Illustrator 17.1.0, SVG Export Plug-In . SVG Version: 6.00 Build 0)  -->
<!DOCTYPE svg PUBLIC "-//W3C//DTD SVG 1.0//EN" "http://www.w3.org/TR/2001/REC-SVG-20010904/DTD/svg10.dtd">
<svg version="1.0" id="Layer_1" xmlns="http://www.w3.org/2000/svg" xmlns:xlink="http://www.w3.org/1999/xlink" x="0px" y="0px"
	 width="60px" height="60px" viewBox="0 0 60 60" enable-background="new 0 0 60 60" xml:space="preserve">
<g>
	<g>
		<path fill="#CCCCCC" d="M30,59C14,59,1,46,1,30S14,1,30,1s29,13,29,29S46,59,30,59z M30,3C15.1,3,3,15.1,3,30s12.1,27,27,27
			s27-12.1,27-27S44.9,3,30,3z"/>
	</g>
	<g>
		<g>
			<path fill="#CCCCCC" d="M37.2,24.4C37.2,24.4,37.2,24.4,37.2,24.4c-0.9-0.8-2-1.2-3.2-1.2l0-0.1c0,0,0,0,0,0
				c1.1-0.2,1.7-0.5,1.9-0.7c0.1-0.2,0-0.3-0.3-0.4c-0.6,0.1-1.1,0.2-1.5,0.4c0.6-0.4,0.8-0.6,0.7-0.7c-0.6,0-1.2,0.3-1.8,0.8
				c0.2-0.4,0.3-0.6,0.3-0.6c-0.3,0.2-0.6,0.4-0.8,0.6c-0.5,0.5-0.9,1-1.2,1.4l0,0c-0.8,1.2-1.3,2.4-1.6,3.6l-0.1,0.1l0,0
				c-0.5-0.6-1-1-1.7-1.4c-0.8-0.5-1.7-0.9-2.8-1.4c-1.2-0.6-2.3-1-3.5-1.4c0,1.3,0.6,2.3,1.9,3v0c-0.5,0-0.9,0.1-1.3,0.2
				c0.1,1.2,1,2,2.6,2.4l0,0c-0.6,0-1.2,0.2-1.6,0.6c0.5,1,1.5,1.5,2.9,1.5c-0.3,0.1-0.5,0.3-0.6,0.4c-0.3,0.2-0.3,0.6-0.3,0.9
				c0.3,0.5,0.8,0.8,1.6,0.7l0,0l0,0c0,0,0,0,0,0c-1.4,1.3-3,1.9-4.9,1.8l0,0c-1.2,0-2.4-0.5-3.8-1.6c1.4,1.9,3.2,3.2,5.4,4.1
				c2.6,0.8,5.2,0.9,7.7,0.2h0c2.5-0.7,4.6-2.1,6.4-4.2c0.8-1.1,1.3-2.2,1.5-3.2c1.3,0,2.2-0.3,2.8-1.1l0,0
				c-0.4,0.1-1.3,0.1-2.5-0.1V29c0,0,0,0,0,0c1.4-0.2,2.2-0.6,2.5-1.3c-1,0.4-1.9,0.4-2.8,0C38.9,26.6,38.3,25.4,37.2,24.4z"/>
		</g>
	</g>
</g>
</svg>
