<?xml version="1.0" encoding="utf-8"?>
<!-- Generator: Adobe Illustrator 15.0.0, SVG Export Plug-In . SVG Version: 6.00 Build 0)  -->
<!DOCTYPE svg PUBLIC "-//W3C//DTD SVG 1.1//EN" "http://www.w3.org/Graphics/SVG/1.1/DTD/svg11.dtd">
<svg version="1.1" id="Layer_1" xmlns="http://www.w3.org/2000/svg" xmlns:xlink="http://www.w3.org/1999/xlink" x="0px" y="0px"
	 width="60px" height="60px" viewBox="0 0 60 60" enable-background="new 0 0 60 60" xml:space="preserve">
<g>
	<g>
		<path fill="#752B90" d="M30,59C14,59,1,46,1,30S14,1,30,1s29,13,29,29S46,59,30,59z M30,3C15.1,3,3,15.1,3,30
			c0,14.9,12.1,27,27,27c14.9,0,27-12.1,27-27C57,15.1,44.9,3,30,3z"/>
	</g>
	<g>
		<g>
			<path fill="#752B90" d="M37.2,24.4L37.2,24.4c-0.9-0.8-2-1.2-3.2-1.2v-0.1l0,0c1.1-0.2,1.7-0.5,1.9-0.7c0.1-0.2,0-0.3-0.301-0.4
				c-0.6,0.1-1.1,0.2-1.5,0.4c0.601-0.4,0.801-0.6,0.7-0.7c-0.6,0-1.2,0.3-1.8,0.8c0.2-0.4,0.3-0.6,0.3-0.6
				c-0.3,0.2-0.6,0.4-0.8,0.6c-0.5,0.5-0.9,1-1.2,1.4l0,0c-0.8,1.2-1.3,2.4-1.6,3.6l-0.1,0.1l0,0c-0.5-0.6-1-1-1.7-1.4
				c-0.8-0.5-1.7-0.9-2.8-1.4c-1.2-0.6-2.3-1-3.5-1.4c0,1.3,0.6,2.3,1.9,3l0,0c-0.5,0-0.9,0.1-1.3,0.2c0.1,1.2,1,2,2.6,2.4l0,0
				c-0.6,0-1.2,0.2-1.6,0.6c0.5,1,1.5,1.5,2.9,1.5c-0.3,0.101-0.5,0.301-0.6,0.4c-0.3,0.2-0.3,0.6-0.3,0.9
				c0.3,0.5,0.8,0.8,1.6,0.699l0,0l0,0l0,0c-1.4,1.301-3,1.9-4.9,1.801l0,0c-1.2,0-2.4-0.5-3.8-1.601c1.4,1.9,3.2,3.2,5.4,4.101
				c2.6,0.8,5.2,0.899,7.7,0.199l0,0c2.5-0.699,4.6-2.1,6.399-4.199c0.801-1.101,1.301-2.2,1.5-3.2c1.301,0,2.2-0.3,2.801-1.1l0,0
				c-0.4,0.1-1.301,0.1-2.5-0.1l0,0l0,0c1.399-0.2,2.199-0.6,2.5-1.3c-1,0.4-1.9,0.4-2.801,0C38.9,26.6,38.3,25.4,37.2,24.4z"/>
		</g>
	</g>
</g>
</svg>
